<svg preserveAspectRatio="none" width="100%" height="100%" overflow="visible" style="display: block;" viewBox="0 0 519 233.596" fill="none" xmlns="http://www.w3.org/2000/svg">
<g id="outline">
<mask id="path-1-inside-1_0_13" fill="white">
<path d="M490.823 0C490.823 15.7596 503.357 28.5892 519 29.0693V204.525C503.357 205.006 490.823 217.836 490.823 233.596H29.0869C29.0869 217.532 16.0646 204.51 0.000976562 204.51H0V29.085C15.8126 29.085 28.6789 16.4676 29.0771 0.750977L29.0869 0H490.823Z"/>
</mask>
<path d="M490.823 0H491.823V-1H490.823V0ZM519 29.0693H520V28.0996L519.031 28.0698L519 29.0693ZM519 204.525L519.031 205.525L520 205.495V204.525H519ZM490.823 233.596V234.596H491.823V233.596H490.823ZM29.0869 233.596H28.0869V234.596H29.0869V233.596ZM0.000976562 204.51L0.000977974 203.51H0.000976562V204.51ZM0 204.51H-1V205.51H0V204.51ZM0 29.085V28.085H-1V29.085H0ZM29.0771 0.750977L30.0769 0.77631L30.0771 0.763979L29.0771 0.750977ZM29.0869 0V-1H28.0998L28.087 -0.0130028L29.0869 0ZM490.823 0H489.823C489.823 16.3017 502.788 29.5722 518.969 30.0689L519 29.0693L519.031 28.0698C503.926 27.6062 491.823 15.2175 491.823 0H490.823ZM519 29.0693H518V204.525H519H520V29.0693H519ZM519 204.525L518.969 203.526C502.788 204.023 489.823 217.294 489.823 233.596H490.823H491.823C491.823 218.378 503.926 205.989 519.031 205.525L519 204.525ZM490.823 233.596V232.596H29.0869V233.596V234.596H490.823V233.596ZM29.0869 233.596H30.0869C30.0869 216.98 16.6169 203.51 0.000977974 203.51L0.000976562 204.51L0.000975151 205.51C15.5123 205.51 28.0869 218.084 28.0869 233.596H29.0869ZM0.000976562 204.51V203.51H0V204.51V205.51H0.000976562V204.51ZM0 204.51H1V29.085H0H-1V204.51H0ZM0 29.085V30.085C16.3563 30.085 29.6649 17.0339 30.0768 0.776308L29.0771 0.750977L28.0775 0.725645C27.6929 15.9013 15.2689 28.085 0 28.085V29.085ZM29.0771 0.750977L30.0771 0.763979L30.0868 0.0130028L29.0869 0L28.087 -0.0130028L28.0772 0.737974L29.0771 0.750977ZM29.0869 0V1H490.823V0V-1H29.0869V0Z" fill="var(--stroke-0, white)" fill-opacity="0.4" mask="url(#path-1-inside-1_0_13)"/>
</g>
</svg>
