<svg preserveAspectRatio="none" width="100%" height="100%" overflow="visible" style="display: block;" viewBox="0 0 800 289" fill="none" xmlns="http://www.w3.org/2000/svg">
<g id="BG" filter="url(#filter0_d_0_19)">
<path d="M548 8C550.209 8 551.974 9.79983 552.247 11.9921C554.211 27.7811 567.679 40 584 40C600.321 40 613.789 27.7811 615.753 11.9921C616.026 9.79983 617.791 8 620 8H744C746.209 8 747.974 9.79983 748.247 11.9921C750.049 26.4733 761.527 37.9513 776.008 39.7534C778.2 40.0262 780 41.7909 780 44V47C780 49.2091 778.102 50.9171 776.164 51.9779C773.683 53.3363 772 55.9716 772 59C772 62.3837 774.101 65.2767 777.069 66.446C778.611 67.0533 780 68.3431 780 70C780 71.6569 778.611 72.9467 777.069 73.554C774.101 74.7233 772 77.6163 772 81C772 84.3837 774.101 87.2767 777.069 88.446C778.611 89.0533 780 90.3431 780 92C780 93.6569 778.611 94.9467 777.069 95.554C774.101 96.7233 772 99.6163 772 103C772 106.384 774.101 109.277 777.069 110.446C778.611 111.053 780 112.343 780 114C780 115.657 778.611 116.947 777.069 117.554C774.101 118.723 772 121.616 772 125C772 128.384 774.101 131.277 777.069 132.446C778.611 133.053 780 134.343 780 136C780 137.657 778.611 138.947 777.069 139.554C774.101 140.723 772 143.616 772 147C772 150.384 774.101 153.277 777.069 154.446C778.611 155.053 780 156.343 780 158C780 159.657 778.611 160.947 777.069 161.554C774.101 162.723 772 165.616 772 169C772 172.384 774.101 175.277 777.069 176.446C778.611 177.053 780 178.343 780 180C780 181.657 778.611 182.947 777.069 183.554C774.101 184.723 772 187.616 772 191C772 194.384 774.101 197.277 777.069 198.446C778.611 199.053 780 200.343 780 202C780 203.657 778.611 204.947 777.069 205.554C774.101 206.723 772 209.616 772 213C772 216.028 773.683 218.664 776.164 220.022C778.102 221.083 780 222.791 780 225V229C780 231.209 778.2 232.974 776.008 233.247C761.527 235.049 750.049 246.527 748.247 261.008C747.974 263.2 746.209 265 744 265H620C617.791 265 616.026 263.2 615.753 261.008C613.789 245.219 600.321 233 584 233C567.679 233 554.211 245.219 552.247 261.008C551.974 263.2 550.209 265 548 265H48C45.7909 265 44.0262 263.2 43.7534 261.008C41.9513 246.527 30.4733 235.049 15.9921 233.247C13.7998 232.974 12 231.209 12 229V225C12 222.791 13.8981 221.083 15.8359 220.022C18.3173 218.664 20 216.028 20 213C20 209.616 17.8993 206.723 14.931 205.554C13.3895 204.947 12 203.657 12 202C12 200.343 13.3895 199.053 14.931 198.446C17.8993 197.277 20 194.384 20 191C20 187.616 17.8993 184.723 14.931 183.554C13.3895 182.947 12 181.657 12 180C12 178.343 13.3895 177.053 14.931 176.446C17.8993 175.277 20 172.384 20 169C20 165.616 17.8993 162.723 14.931 161.554C13.3895 160.947 12 159.657 12 158C12 156.343 13.3895 155.053 14.931 154.446C17.8993 153.277 20 150.384 20 147C20 143.616 17.8993 140.723 14.931 139.554C13.3895 138.947 12 137.657 12 136C12 134.343 13.3895 133.053 14.931 132.446C17.8993 131.277 20 128.384 20 125C20 121.616 17.8993 118.723 14.931 117.554C13.3895 116.947 12 115.657 12 114C12 112.343 13.3895 111.053 14.931 110.446C17.8993 109.277 20 106.384 20 103C20 99.6163 17.8993 96.7233 14.931 95.554C13.3895 94.9467 12 93.6569 12 92C12 90.3431 13.3895 89.0533 14.931 88.446C17.8993 87.2767 20 84.3837 20 81C20 77.6163 17.8993 74.7233 14.931 73.554C13.3895 72.9467 12 71.6569 12 70C12 68.3431 13.3895 67.0533 14.931 66.446C17.8993 65.2767 20 62.3837 20 59C20 55.9716 18.3173 53.3363 15.8359 51.9779C13.8981 50.9171 12 49.2091 12 47V44C12 41.7909 13.7998 40.0262 15.9921 39.7534C30.4733 37.9513 41.9513 26.4733 43.7534 11.9921C44.0262 9.79983 45.7909 8 48 8H548Z" fill="var(--fill-0, #525834)"/>
</g>
<defs>
<filter id="filter0_d_0_19" x="0" y="0" width="800" height="289" filterUnits="userSpaceOnUse" color-interpolation-filters="sRGB">
<feFlood flood-opacity="0" result="BackgroundImageFix"/>
<feColorMatrix in="SourceAlpha" type="matrix" values="0 0 0 0 0 0 0 0 0 0 0 0 0 0 0 0 0 0 127 0" result="hardAlpha"/>
<feOffset dx="4" dy="8"/>
<feGaussianBlur stdDeviation="8"/>
<feComposite in2="hardAlpha" operator="out"/>
<feColorMatrix type="matrix" values="0 0 0 0 0 0 0 0 0 0 0 0 0 0 0 0 0 0 0.13 0"/>
<feBlend mode="normal" in2="BackgroundImageFix" result="effect1_dropShadow_0_19"/>
<feBlend mode="normal" in="SourceGraphic" in2="effect1_dropShadow_0_19" result="shape"/>
</filter>
</defs>
</svg>
