<svg preserveAspectRatio="none" width="100%" height="100%" overflow="visible" style="display: block;" viewBox="0 0 157 233" fill="none" xmlns="http://www.w3.org/2000/svg">
<g id="outline">
<mask id="path-1-inside-1_0_5" fill="white">
<path d="M128.827 0C128.984 15.6231 141.456 28.2943 157 28.7715V204.228C141.456 204.705 128.984 217.377 128.827 233H28.168C28.0113 217.379 15.542 204.707 0 204.228V28.7715C15.542 28.2916 28.0113 15.6214 28.168 0H128.827Z"/>
</mask>
<path d="M128.827 0L129.827 -0.010029L129.817 -1H128.827V0ZM157 28.7715H158V27.8017L157.031 27.772L157 28.7715ZM157 204.228L157.031 205.227L158 205.197V204.228H157ZM128.827 233V234H129.817L129.827 233.01L128.827 233ZM28.168 233L27.168 233.01L27.1779 234H28.168V233ZM0 204.228H-1V205.197L-0.0308613 205.227L0 204.228ZM0 28.7715L-0.0308624 27.772L-1 27.8019V28.7715H0ZM28.168 0V-1H27.1779L27.168 -0.0100287L28.168 0ZM128.827 0L127.827 0.010029C127.989 16.1707 140.89 29.2775 156.969 29.771L157 28.7715L157.031 27.772C142.021 27.3112 129.978 15.0756 129.827 -0.010029L128.827 0ZM157 28.7715H156V204.228H157H158V28.7715H157ZM157 204.228L156.969 203.228C140.89 203.722 127.989 216.829 127.827 232.99L128.827 233L129.827 233.01C129.978 217.924 142.021 205.688 157.031 205.227L157 204.228ZM128.827 233V232H28.168V233V234H128.827V233ZM28.168 233L29.1679 232.99C29.0059 216.831 16.1079 203.724 0.0308613 203.228L0 204.228L-0.0308613 205.227C14.9761 205.69 27.0167 217.926 27.168 233.01L28.168 233ZM0 204.228H1V28.7715H0H-1V204.228H0ZM0 28.7715L0.0308624 29.771C16.1078 29.2746 29.0059 16.1689 29.1679 0.0100287L28.168 0L27.168 -0.0100287C27.0167 15.0738 14.9761 27.3086 -0.0308624 27.772L0 28.7715ZM28.168 0V1H128.827V0V-1H28.168V0Z" fill="var(--stroke-0, white)" fill-opacity="0.4" mask="url(#path-1-inside-1_0_5)"/>
</g>
</svg>
